HIERARCHY
ROOT Hips
{
	OFFSET 0.000000 0.000000 0.000000
	CHANNELS 6 Xposition Yposition Zposition Zrotation Yrotation Xrotation 
	JOINT LHipJoint
	{
		OFFSET 0.000000 0.000000 0.000000
		CHANNELS 3 Zrotation Yrotation Xrotation
		JOINT LeftUpLeg
		{
			OFFSET 1.363060 -1.794630 0.839290
			CHANNELS 3 Zrotation Yrotation Xrotation
			JOINT LeftLeg
			{
				OFFSET 2.448110 -6.726130 0.000000
				CHANNELS 3 Zrotation Yrotation Xrotation
				JOINT LeftFoot
				{
					OFFSET 2.562200 -7.039590 0.000000
					CHANNELS 3 Zrotation Yrotation Xrotation
					JOINT LeftToeBase
					{
						OFFSET 0.157640 -0.433110 2.322550
						CHANNELS 3 Zrotation Yrotation Xrotation
						End Site
						{
							OFFSET 0.000000 0.000000 0.000000
						}
					}
				}
			}
		}
	}
	JOINT RHipJoint
	{
		OFFSET 0.000000 0.000000 0.000000
		CHANNELS 3 Zrotation Yrotation Xrotation
		JOINT RightUpLeg
		{
			OFFSET -1.305520 -1.794630 0.839290
			CHANNELS 3 Zrotation Yrotation Xrotation
			JOINT RightLeg
			{
				OFFSET -2.542530 -6.985550 0.000000
				CHANNELS 3 Zrotation Yrotation Xrotation
				JOINT RightFoot
				{
					OFFSET -2.568260 -7.056230 0.000000
					CHANNELS 3 Zrotation Yrotation Xrotation
					JOINT RightToeBase
					{
						OFFSET -0.164730 -0.452590 2.363150
						CHANNELS 3 Zrotation Yrotation Xrotation
						End Site
						{
							OFFSET 0.000000 0.000000 0.000000
						}
					}
				}
			}
		}
	}
	JOINT LowerBack
	{
		OFFSET 0.000000 0.000000 0.000000
		CHANNELS 3 Zrotation Yrotation Xrotation
		JOINT Spine
		{
			OFFSET 0.028270 2.035590 -0.193380
			CHANNELS 3 Zrotation Yrotation Xrotation
			JOINT Spine1
			{
				OFFSET 0.056720 2.048850 -0.042750
				CHANNELS 3 Zrotation Yrotation Xrotation
				JOINT Neck
				{
					OFFSET 0.000000 0.000000 0.000000
					CHANNELS 3 Zrotation Yrotation Xrotation
					JOINT Neck1
					{
						OFFSET -0.054170 1.746240 0.172020
						CHANNELS 3 Zrotation Yrotation Xrotation
						JOINT Head
						{
							OFFSET 0.104070 1.761360 -0.123970
							CHANNELS 3 Zrotation Yrotation Xrotation
							End Site
							{
								OFFSET 0.000000 0.000000 0.000000
							}
						}
					}
				}
				JOINT LeftShoulder
				{
					OFFSET 0.000000 0.000000 0.000000
					CHANNELS 3 Zrotation Yrotation Xrotation
					JOINT LeftArm
					{
						OFFSET 3.362410 1.200890 -0.311210
						CHANNELS 3 Zrotation Yrotation Xrotation
						JOINT LeftForeArm
						{
							OFFSET 4.983000 -0.000000 -0.000000
							CHANNELS 3 Zrotation Yrotation Xrotation
							JOINT LeftHand
							{
								OFFSET 3.483560 -0.000000 -0.000000
								CHANNELS 3 Zrotation Yrotation Xrotation
								JOINT LeftFingerBase
								{
									OFFSET 0.000000 0.000000 0.000000
									CHANNELS 3 Zrotation Yrotation Xrotation
									JOINT LeftHandIndex1
									{
										OFFSET 0.715260 -0.000000 -0.000000
										CHANNELS 3 Zrotation Yrotation Xrotation
										End Site
										{
											OFFSET 0.000000 0.000000 0.000000
										}
									}
								}
								JOINT LThumb
								{
									OFFSET 0.000000 0.000000 0.000000
									CHANNELS 3 Zrotation Yrotation Xrotation
									End Site
									{
										OFFSET 0.000000 0.000000 0.000000
									}
								}
							}
						}
					}
				}
				JOINT RightShoulder
				{
					OFFSET 0.000000 0.000000 0.000000
					CHANNELS 3 Zrotation Yrotation Xrotation
					JOINT RightArm
					{
						OFFSET -3.136600 1.374050 -0.404650
						CHANNELS 3 Zrotation Yrotation Xrotation
						JOINT RightForeArm
						{
							OFFSET -5.241900 -0.000000 -0.000000
							CHANNELS 3 Zrotation Yrotation Xrotation
							JOINT RightHand
							{
								OFFSET -3.444170 -0.000000 -0.000000
								CHANNELS 3 Zrotation Yrotation Xrotation
								JOINT RightFingerBase
								{
									OFFSET 0.000000 0.000000 0.000000
									CHANNELS 3 Zrotation Yrotation Xrotation
									JOINT RightHandIndex1
									{
										OFFSET -0.622530 -0.000000 -0.000000
										CHANNELS 3 Zrotation Yrotation Xrotation
										End Site
										{
											OFFSET 0.000000 0.000000 0.000000
										}
									}
								}
								JOINT RThumb
								{
									OFFSET 0.000000 0.000000 0.000000
									CHANNELS 3 Zrotation Yrotation Xrotation
									End Site
									{
										OFFSET 0.000000 0.000000 0.000000
									}
								}
							}
						}
					}
				}
			}
		}
	}
}
MOTION
Frames: 9
Frame Time: 0.008333
8.497063 18.107414 4.867228 -3.090683 -2.835167 3.747961 -2.139575 -3.541855 -1.246643 -9.738512 3.582754 -3.212460 -0.469233 4.180293 8.606830 0.603793 -1.534305 0.375261 3.622700 11.640700 34.472500 -1.693787 2.834487 -4.195733 19.469443 -2.497226 -10.982778 -1.598397 -10.228823 25.301881 -0.719865 -6.610141 -21.597954 -0.083400 1.863100 -5.127600 -0.964386 0.893288 4.523071 0.561451 1.111091 -3.401090 -1.654701 0.846959 2.725035 -5.448443 -4.382725 -3.488542 6.583159 -6.452204 9.065853 2.280900 -3.085300 1.338100 -0.359728 -8.786680 2.603282 -77.304354 -5.170531 34.456932 14.136921 -18.932934 -2.332681 0.618775 0.365713 -12.831269 12.829421 -12.918265 -2.809200 -7.125000 0.000000 0.000000 -10.452100 16.649900 7.140000 0.388624 9.126215 2.715231 84.016025 -4.451426 22.990657 -16.697240 20.206986 -4.077376 1.591960 1.126983 -0.920338 -4.165130 -34.525263 3.354400 7.125000 0.000000 0.000000 33.475400 -62.516300 -15.136200 
8.497260 18.106035 4.873236 -3.343496 -2.873039 3.780607 -2.130032 -3.534754 -1.248741 -9.393851 3.532026 -3.184562 -0.457431 4.166793 8.600997 0.623130 -1.675385 0.617372 4.107300 12.301900 36.808300 -1.698966 2.820281 -4.181312 19.885045 -2.549179 -10.989726 -1.618989 -10.312078 25.524231 -0.763764 -6.472553 -22.056798 -0.131800 2.340000 -6.446400 -0.839464 0.877730 4.442138 0.625828 1.086314 -3.455587 -1.643018 0.840334 2.670822 -5.730390 -4.042640 -3.849074 6.958345 -6.058914 9.504106 2.421500 -2.876200 1.527800 -0.352575 -8.801453 2.597019 -77.487728 -4.932936 33.558287 14.069792 -18.843800 -2.300620 0.594178 0.365146 -12.217296 12.801217 -12.132738 -2.646200 -7.125000 0.000000 0.000000 -10.471400 17.429100 6.972200 0.396478 9.101198 2.716775 84.012183 -4.612914 23.095067 -16.706087 20.231234 -4.102327 1.582885 1.161713 -0.887774 -3.614750 -34.984501 3.063600 7.125000 0.000000 0.000000 34.624500 -62.782500 -15.939300 
8.496964 18.106429 4.882100 -3.372633 -2.945181 3.749986 -2.123868 -3.530071 -1.243963 -9.350313 3.543579 -3.071871 -0.456151 4.144248 8.541410 0.628101 -1.713061 0.678117 4.309700 12.561600 37.748700 -1.700813 2.818733 -4.184983 20.035821 -2.613482 -10.909971 -1.626375 -10.350722 25.625880 -0.757994 -6.577901 -22.097822 -0.194000 2.836800 -7.824700 -0.895656 0.949734 4.368059 0.568842 1.176536 -3.490626 -1.689362 0.883155 2.638703 -5.715375 -3.810548 -4.055417 7.152907 -5.780975 9.780455 2.464400 -2.725900 1.632300 -0.350840 -8.805422 2.603143 -77.435973 -4.716250 33.173395 13.989557 -18.737497 -2.273498 0.585579 0.368376 -11.910160 12.893817 -11.849133 -2.610600 -7.125000 0.000000 0.000000 -10.408300 17.699600 6.865800 0.395740 9.094847 2.709590 84.194025 -4.801344 22.974936 -16.717967 20.239482 -4.097713 1.594920 1.133628 -0.844927 -4.133940 -34.784528 3.358700 7.125000 0.000000 0.000000 33.813000 -62.727600 -15.475700 
8.498836 18.105444 4.895102 -3.331084 -2.986402 3.692182 -2.125895 -3.526184 -1.235865 -9.424349 3.537673 -2.879999 -0.465103 4.094662 8.393214 0.615691 -1.620370 0.641914 4.360700 12.625600 37.982500 -1.690334 2.829974 -4.194083 20.064981 -2.727403 -10.717480 -1.670766 -10.448558 25.922990 -0.792753 -6.266015 -22.254348 -0.138400 2.398000 -6.607100 -1.016820 0.968090 4.241188 0.527662 1.201848 -3.511853 -1.675236 0.888975 2.663884 -5.578619 -3.588020 -4.241385 7.072367 -5.469344 9.926582 2.412700 -2.562600 1.681300 -0.350291 -8.796509 2.600948 -77.455070 -4.610339 32.610793 13.712223 -18.387335 -2.199799 0.607317 0.365358 -11.326488 12.943912 -12.354108 -2.725100 -7.125000 0.000000 0.000000 -10.373600 17.189000 6.960400 0.394572 9.101083 2.711613 84.250900 -4.918522 23.010634 -16.704166 20.216604 -4.078116 1.600747 1.108416 -0.732442 -4.433896 -34.487097 3.510000 7.125000 0.000000 0.000000 33.133600 -62.540100 -14.981600 
8.499624 18.103967 4.910959 -3.465954 -3.045546 3.629505 -2.121349 -3.515611 -1.221951 -9.269245 3.601495 -2.653985 -0.475284 4.035863 8.234811 0.588441 -1.417051 0.475479 4.116100 12.313400 36.849800 -1.698819 2.828799 -4.203964 20.351008 -2.768316 -10.434169 -1.671152 -10.472764 25.968996 -0.799301 -6.196859 -22.306471 -0.115000 2.185900 -6.019700 -0.962811 0.961681 4.135728 0.549890 1.191816 -3.544151 -1.673922 0.882587 2.664971 -5.530492 -3.538343 -4.499071 7.266586 -5.425017 10.045154 2.448100 -2.529900 1.763500 -0.339135 -8.793530 2.592743 -77.505276 -4.483213 32.055441 13.419691 -18.015546 -2.120735 0.622238 0.362252 -10.860046 12.935977 -12.706173 -2.795200 -7.125000 0.000000 0.000000 -10.379500 16.836000 7.045900 0.402619 9.091992 2.715762 84.208211 -5.050330 23.199209 -16.725242 20.252047 -4.097217 1.597146 1.124119 -0.650773 -4.162074 -34.732636 3.369800 7.125000 0.000000 0.000000 33.720600 -62.688400 -15.397300 
8.499919 18.105050 4.924946 -3.633385 -3.097513 3.595460 -2.114208 -3.504495 -1.208680 -9.065026 3.670125 -2.481178 -0.483053 3.989558 8.117161 0.562733 -1.228869 0.304542 3.878000 11.996300 35.718900 -1.714871 2.823819 -4.212785 20.690001 -2.769720 -10.157048 -1.658354 -10.457758 25.895833 -0.788676 -6.119127 -22.151179 -0.102800 2.067700 -5.692700 -0.857622 0.971264 4.083713 0.569956 1.198947 -3.608422 -1.708530 0.885923 2.570735 -5.465091 -3.509259 -5.092952 7.494083 -5.415643 10.580353 2.476500 -2.499200 2.023200 -0.325677 -8.777609 2.590952 -77.462397 -4.158246 32.057710 13.396684 -17.981331 -2.107032 0.603191 0.368294 -11.213015 12.933651 -12.274926 -2.707900 -7.125000 0.000000 0.000000 -10.379700 17.264300 6.947200 0.412291 9.084445 2.719384 84.249725 -5.365711 23.311021 -16.850681 20.409556 -4.155463 1.594886 1.134596 -0.816693 -4.221100 -35.007142 3.427900 7.125000 0.000000 0.000000 33.984400 -62.931200 -15.726100 
8.502381 18.106725 4.939818 -3.624703 -3.084295 3.527192 -2.111110 -3.499666 -1.197003 -9.112028 3.693253 -2.275824 -0.487322 3.940470 7.976705 0.557061 -1.187631 0.351887 4.067900 12.250300 36.623100 -1.715759 2.836289 -4.231579 20.763748 -2.935849 -9.831313 -1.642414 -10.416179 25.764539 -0.796212 -5.894351 -22.063158 -0.077900 1.800300 -4.954000 -0.870796 0.985742 4.044217 0.528038 1.216383 -3.664182 -1.757873 0.886456 2.487125 -5.068640 -3.559354 -5.494475 7.154858 -5.431999 11.035313 2.293600 -2.489600 2.193100 -0.325355 -8.735910 2.595742 -77.328873 -3.761897 32.389556 13.505782 -18.112850 -2.127207 0.574562 0.373910 -11.905454 12.849355 -11.632876 -2.558700 -7.125000 0.000000 0.000000 -10.438300 17.912000 6.836600 0.408644 9.109572 2.725507 84.426692 -5.765942 23.172195 -17.015009 20.597711 -4.205569 1.591642 1.119904 -1.032909 -4.560747 -34.854635 3.614300 7.125000 0.000000 0.000000 33.429800 -62.873600 -15.393600 
8.503169 18.105838 4.959517 -3.532670 -3.118637 3.436209 -2.108474 -3.499169 -1.184415 -9.251814 3.781779 -2.029398 -0.491601 3.881808 7.803363 0.551855 -1.148534 0.448666 4.288200 12.534300 37.649400 -1.711754 2.853800 -4.256476 20.749954 -3.090411 -9.414944 -1.614412 -10.360425 25.588173 -0.804677 -5.806929 -22.102377 -0.065300 1.649300 -4.537500 -0.961105 1.038613 3.928726 0.465360 1.285549 -3.687052 -1.792956 0.913405 2.497895 -4.947197 -3.595770 -5.798414 7.091678 -5.479816 11.535178 2.240500 -2.496800 2.379900 -0.323240 -8.721985 2.602065 -77.220287 -3.566495 32.470341 13.423996 -18.004400 -2.096029 0.560392 0.371432 -12.054275 12.637269 -11.286194 -2.443100 -7.125000 0.000000 0.000000 -10.586600 18.274400 6.851000 0.406228 9.114377 2.726011 84.613578 -6.079875 22.848935 -17.147871 20.740893 -4.236516 1.586564 1.099519 -0.965085 -4.694161 -34.567499 3.662200 7.125000 0.000000 0.000000 32.948000 -62.654500 -14.976400 
8.497851 18.101898 4.977542 -3.591431 -3.252868 3.441053 -2.095708 -3.492461 -1.173278 -9.129450 3.943098 -1.919454 -0.495678 3.830148 7.669950 0.531275 -0.994673 0.459153 4.208900 12.433300 37.282600 -1.729182 2.851877 -4.271970 21.025442 -3.009451 -9.058982 -1.562308 -10.271099 25.286253 -0.762238 -6.096929 -21.874198 -0.108600 2.125200 -5.851700 -0.965898 1.145693 3.719533 0.435742 1.421749 -3.746646 -1.808172 0.977734 2.517723 -4.879903 -3.481548 -5.694999 7.115047 -5.341093 11.612559 2.238300 -2.425000 2.372400 -0.323755 -8.726196 2.604854 -77.155549 -3.484468 32.266731 13.154963 -17.658399 -2.020784 0.571324 0.364986 -11.670661 12.449406 -11.518544 -2.448900 -7.125000 0.000000 0.000000 -10.715300 18.056800 6.989700 0.400537 9.113585 2.723651 84.793664 -6.312185 22.472394 -17.191686 20.787904 -4.249788 1.590507 1.086045 -0.822678 -4.839874 -34.511215 3.742100 7.125000 0.000000 0.000000 32.720600 -62.635900 -14.846800 
